              <svg
                xmlns="http://www.w3.org/2000/svg"
                width="30"
                viewBox="0 0 375 375"
                height="30"
                version="1.0"
              >
                <path fill="#FFF" d="M-37.5 -37.5H412.5V412.5H-37.5z" />
                <path fill="#E5E5E5" d="M-37.5 -37.5H412.5V412.5H-37.5z" />
                <g>
                  <g>
                    <g>
                      <path
                        d="M 10.078125 0 L 10.078125 -4.578125 L 19.234375 -8.234375 C 25.335938 -10.378906 29.378906 -13.28125 31.359375 -16.9375 C 33.347656 -20.601562 34.34375 -25.332031 34.34375 -31.125 L 34.34375 -270.578125 C 34.34375 -276.679688 33.347656 -281.5625 31.359375 -285.21875 C 29.378906 -288.882812 25.335938 -291.785156 19.234375 -293.921875 L 10.078125 -297.59375 L 10.078125 -302.171875 L 126.359375 -302.171875 L 126.359375 -297.59375 L 118.578125 -294.390625 C 112.773438 -292.242188 108.804688 -289.414062 106.671875 -285.90625 C 104.535156 -282.40625 103.46875 -277.597656 103.46875 -271.484375 L 103.46875 -160.234375 L 212.890625 -160.234375 L 212.890625 -271.484375 C 212.890625 -277.597656 211.894531 -282.40625 209.90625 -285.90625 C 207.925781 -289.414062 203.882812 -292.242188 197.78125 -294.390625 L 189.546875 -297.59375 L 189.546875 -302.171875 L 306.28125 -302.171875 L 306.28125 -297.59375 L 297.125 -293.921875 C 291.332031 -291.785156 287.363281 -288.882812 285.21875 -285.21875 C 283.082031 -281.5625 282.015625 -276.679688 282.015625 -270.578125 L 282.015625 -31.125 C 282.015625 -25.332031 283.082031 -20.601562 285.21875 -16.9375 C 287.363281 -13.28125 291.332031 -10.378906 297.125 -8.234375 L 306.28125 -4.578125 L 306.28125 0 L 189.546875 0 L 189.546875 -4.578125 L 197.78125 -7.328125 C 203.882812 -9.765625 207.925781 -12.738281 209.90625 -16.25 C 211.894531 -19.757812 212.890625 -24.566406 212.890625 -30.671875 L 212.890625 -151.078125 L 103.46875 -151.078125 L 103.46875 -30.671875 C 103.46875 -19.378906 108.503906 -11.597656 118.578125 -7.328125 L 126.359375 -4.578125 L 126.359375 0 Z M 10.078125 0"
                        transform="translate(29.333 337.97)"
                      />
                    </g>
                  </g>
                </g>
                <g>
                  <g>
                    <g>
                      <path
                        d="M 27.859375 -65.40625 L 27.859375 -34.15625 C 35.929688 -34.15625 41.335938 -35.320312 44.078125 -37.65625 C 46.828125 -40 48.203125 -43.914062 48.203125 -49.40625 C 48.203125 -54.894531 46.785156 -58.929688 43.953125 -61.515625 C 41.128906 -64.109375 35.765625 -65.40625 27.859375 -65.40625 Z M 75.453125 1.21875 L 70.125 1.21875 C 60.03125 1.21875 53.003906 -0.960938 49.046875 -5.328125 C 45.898438 -8.722656 43.757812 -13.203125 42.625 -18.765625 C 42.144531 -21.109375 41.625 -23.25 41.0625 -25.1875 C 39.769531 -29.550781 37.144531 -31.734375 33.1875 -31.734375 L 27.859375 -31.734375 L 27.859375 -2.421875 L 33.90625 -2.421875 L 33.90625 0 L 3.640625 0 L 3.640625 -2.421875 L 9.6875 -2.421875 L 9.6875 -65.40625 L 3.640625 -65.40625 L 3.640625 -67.828125 L 35.484375 -67.828125 C 56.078125 -67.828125 66.375 -61.8125 66.375 -49.78125 C 66.375 -45.007812 64.632812 -41.128906 61.15625 -38.140625 C 57.6875 -35.160156 53.25 -33.671875 47.84375 -33.671875 L 47.84375 -32.828125 C 55.914062 -32.828125 61.523438 -27.492188 64.671875 -16.828125 C 66.285156 -11.179688 67.921875 -7.164062 69.578125 -4.78125 C 71.234375 -2.40625 73.191406 -1.21875 75.453125 -1.21875 Z M 75.453125 1.21875"
                        transform="translate(149.154 301.798)"
                      />
                    </g>
                  </g>
                </g>
              </svg>
